<svg width="30" height="30" viewBox="0 0 30 30" fill="none" xmlns="http://www.w3.org/2000/svg">
<g id="nft">
<path id="Vector" fill-rule="evenodd" clip-rule="evenodd" d="M15.8837 27.116C15.6493 27.3504 15.3315 27.482 15 27.482C14.6685 27.482 14.3507 27.3504 14.1163 27.116L2.88375 15.884C2.76764 15.768 2.67554 15.6302 2.6127 15.4785C2.54986 15.3268 2.51752 15.1642 2.51752 15C2.51752 14.8359 2.54986 14.6733 2.6127 14.5216C2.67554 14.3699 2.76764 14.2321 2.88375 14.116L14.1163 2.88405C14.3507 2.64971 14.6685 2.51807 15 2.51807C15.3315 2.51807 15.6493 2.64971 15.8837 2.88405L27.116 14.116C27.2321 14.2321 27.3242 14.3699 27.3871 14.5216C27.4499 14.6733 27.4822 14.8359 27.4822 15C27.4822 15.1642 27.4499 15.3268 27.3871 15.4785C27.3242 15.6302 27.2321 15.768 27.116 15.884L15.8837 27.116ZM12 12.7778C12.1326 12.7778 12.2598 12.8305 12.3536 12.9242C12.4473 13.018 12.5 13.1452 12.5 13.2778V16.636C12.5 17.3878 11.5175 17.6721 11.116 17.0366L9.5 14.478V16.9723C9.5 17.1049 9.44732 17.2321 9.35355 17.3259C9.25979 17.4196 9.13261 17.4723 9 17.4723C8.86739 17.4723 8.74021 17.4196 8.64645 17.3259C8.55268 17.2321 8.5 17.1049 8.5 16.9723V13.614C8.5 12.8623 9.4825 12.578 9.884 13.2135L11.5 15.772V13.2778C11.5 13.1452 11.5527 13.018 11.6464 12.9242C11.7402 12.8305 11.8674 12.7778 12 12.7778ZM14.75 12.75C14.5511 12.75 14.3603 12.8291 14.2197 12.9697C14.079 13.1104 14 13.3011 14 13.5V17C14 17.1327 14.0527 17.2598 14.1464 17.3536C14.2402 17.4474 14.3674 17.5 14.5 17.5C14.6326 17.5 14.7598 17.4474 14.8536 17.3536C14.9473 17.2598 15 17.1327 15 17V15.875H16C16.1326 15.875 16.2598 15.8224 16.3536 15.7286C16.4473 15.6348 16.5 15.5077 16.5 15.375C16.5 15.2424 16.4473 15.1153 16.3536 15.0215C16.2598 14.9277 16.1326 14.875 16 14.875H15V13.75H16.625C16.7576 13.75 16.8848 13.6974 16.9786 13.6036C17.0723 13.5098 17.125 13.3827 17.125 13.25C17.125 13.1174 17.0723 12.9903 16.9786 12.8965C16.8848 12.8027 16.7576 12.75 16.625 12.75H14.75ZM20.125 17.5C19.9924 17.5 19.8652 17.4474 19.7714 17.3536C19.6777 17.2598 19.625 17.1327 19.625 17V13.75H19C18.8674 13.75 18.7402 13.6974 18.6464 13.6036C18.5527 13.5098 18.5 13.3827 18.5 13.25C18.5 13.1174 18.5527 12.9903 18.6464 12.8965C18.7402 12.8027 18.8674 12.75 19 12.75H21.25C21.3826 12.75 21.5098 12.8027 21.6036 12.8965C21.6973 12.9903 21.75 13.1174 21.75 13.25C21.75 13.3827 21.6973 13.5098 21.6036 13.6036C21.5098 13.6974 21.3826 13.75 21.25 13.75H20.625V17C20.625 17.1327 20.5723 17.2598 20.4786 17.3536C20.3848 17.4474 20.2576 17.5 20.125 17.5Z" fill="white"/>
<path id="Vector_2" d="M23.25 24.5001H19.9142L24.5 19.9143V23.2501C24.5 23.5816 24.3683 23.8995 24.1339 24.1339C23.8995 24.3684 23.5815 24.5001 23.25 24.5001Z" fill="white"/>
<path id="Vector_3" d="M24.5 6.75V10.0857L19.9142 5.5H23.25C23.5815 5.5 23.8995 5.6317 24.1339 5.86612C24.3683 6.10054 24.5 6.41848 24.5 6.75Z" fill="white"/>
<path id="Vector_4" d="M6.75 5.5H10.0857L5.5 10.0857V6.75C5.5 6.41848 5.6317 6.10054 5.86612 5.86612C6.10054 5.6317 6.41848 5.5 6.75 5.5Z" fill="white"/>
<path id="Vector_5" d="M5.5 23.2501V19.9143L10.0857 24.5001H6.75C6.41848 24.5001 6.10054 24.3684 5.86612 24.1339C5.6317 23.8995 5.5 23.5816 5.5 23.2501Z" fill="white"/>
</g>
</svg>
