<svg width="30" height="30" viewBox="0 0 30 30" fill="none" xmlns="http://www.w3.org/2000/svg">
<g id="nft">
<path id="Vector" fill-rule="evenodd" clip-rule="evenodd" d="M15.8837 27.116C15.6493 27.3504 15.3314 27.482 14.9999 27.482C14.6685 27.482 14.3506 27.3504 14.1162 27.116L2.88369 15.884C2.76758 15.768 2.67548 15.6302 2.61264 15.4785C2.5498 15.3268 2.51746 15.1642 2.51746 15C2.51746 14.8359 2.5498 14.6733 2.61264 14.5216C2.67548 14.3699 2.76758 14.2321 2.88369 14.116L14.1162 2.88405C14.3506 2.64971 14.6685 2.51807 14.9999 2.51807C15.3314 2.51807 15.6493 2.64971 15.8837 2.88405L27.1159 14.116C27.232 14.2321 27.3242 14.3699 27.387 14.5216C27.4498 14.6733 27.4822 14.8359 27.4822 15C27.4822 15.1642 27.4498 15.3268 27.387 15.4785C27.3242 15.6302 27.232 15.768 27.1159 15.884L15.8837 27.116ZM11.9999 12.7778C12.1325 12.7778 12.2597 12.8305 12.3535 12.9242C12.4473 13.018 12.4999 13.1452 12.4999 13.2778V16.636C12.4999 17.3878 11.5174 17.6721 11.1159 17.0366L9.49994 14.478V16.9723C9.49994 17.1049 9.44726 17.2321 9.35349 17.3259C9.25972 17.4196 9.13255 17.4723 8.99994 17.4723C8.86733 17.4723 8.74015 17.4196 8.64639 17.3259C8.55262 17.2321 8.49994 17.1049 8.49994 16.9723V13.614C8.49994 12.8623 9.48244 12.578 9.88394 13.2135L11.4999 15.772V13.2778C11.4999 13.1452 11.5526 13.018 11.6464 12.9242C11.7402 12.8305 11.8673 12.7778 11.9999 12.7778ZM14.7499 12.75C14.551 12.75 14.3603 12.8291 14.2196 12.9697C14.079 13.1104 13.9999 13.3011 13.9999 13.5V17C13.9999 17.1327 14.0526 17.2598 14.1464 17.3536C14.2402 17.4474 14.3673 17.5 14.4999 17.5C14.6325 17.5 14.7597 17.4474 14.8535 17.3536C14.9473 17.2598 14.9999 17.1327 14.9999 17V15.875H15.9999C16.1325 15.875 16.2597 15.8224 16.3535 15.7286C16.4473 15.6348 16.4999 15.5077 16.4999 15.375C16.4999 15.2424 16.4473 15.1153 16.3535 15.0215C16.2597 14.9277 16.1325 14.875 15.9999 14.875H14.9999V13.75H16.6249C16.7575 13.75 16.8847 13.6974 16.9785 13.6036C17.0723 13.5098 17.1249 13.3827 17.1249 13.25C17.1249 13.1174 17.0723 12.9903 16.9785 12.8965C16.8847 12.8027 16.7575 12.75 16.6249 12.75H14.7499ZM20.1249 17.5C19.9923 17.5 19.8652 17.4474 19.7714 17.3536C19.6776 17.2598 19.6249 17.1327 19.6249 17V13.75H18.9999C18.8673 13.75 18.7402 13.6974 18.6464 13.6036C18.5526 13.5098 18.4999 13.3827 18.4999 13.25C18.4999 13.1174 18.5526 12.9903 18.6464 12.8965C18.7402 12.8027 18.8673 12.75 18.9999 12.75H21.2499C21.3825 12.75 21.5097 12.8027 21.6035 12.8965C21.6973 12.9903 21.7499 13.1174 21.7499 13.25C21.7499 13.3827 21.6973 13.5098 21.6035 13.6036C21.5097 13.6974 21.3825 13.75 21.2499 13.75H20.6249V17C20.6249 17.1327 20.5723 17.2598 20.4785 17.3536C20.3847 17.4474 20.2575 17.5 20.1249 17.5Z" fill="url(#paint0_linear_2001_308)"/>
<path id="Vector_2" d="M23.2501 24.5001H19.9143L24.5001 19.9143V23.2501C24.5001 23.5816 24.3684 23.8995 24.1339 24.1339C23.8995 24.3684 23.5816 24.5001 23.2501 24.5001Z" fill="url(#paint1_linear_2001_308)"/>
<path id="Vector_3" d="M24.5001 6.75V10.0857L19.9143 5.5H23.2501C23.5816 5.5 23.8995 5.6317 24.1339 5.86612C24.3684 6.10054 24.5001 6.41848 24.5001 6.75Z" fill="url(#paint2_linear_2001_308)"/>
<path id="Vector_4" d="M6.75 5.5H10.0857L5.5 10.0857V6.75C5.5 6.41848 5.6317 6.10054 5.86612 5.86612C6.10054 5.6317 6.41848 5.5 6.75 5.5Z" fill="url(#paint3_linear_2001_308)"/>
<path id="Vector_5" d="M5.5 23.2501V19.9143L10.0857 24.5001H6.75C6.41848 24.5001 6.10054 24.3684 5.86612 24.1339C5.6317 23.8995 5.5 23.5816 5.5 23.2501Z" fill="url(#paint4_linear_2001_308)"/>
</g>
<defs>
<linearGradient id="paint0_linear_2001_308" x1="14.9999" y1="2.5178" x2="14.9999" y2="27.4823" gradientUnits="userSpaceOnUse">
<stop stop-color="#134FAB"/>
<stop offset="1" stop-color="#12B7F2"/>
</linearGradient>
<linearGradient id="paint1_linear_2001_308" x1="15.0001" y1="2.5178" x2="15.0001" y2="27.4823" gradientUnits="userSpaceOnUse">
<stop stop-color="#134FAB"/>
<stop offset="1" stop-color="#12B7F2"/>
</linearGradient>
<linearGradient id="paint2_linear_2001_308" x1="15.0001" y1="2.51775" x2="15.0001" y2="27.4822" gradientUnits="userSpaceOnUse">
<stop stop-color="#134FAB"/>
<stop offset="1" stop-color="#12B7F2"/>
</linearGradient>
<linearGradient id="paint3_linear_2001_308" x1="15" y1="2.51775" x2="15" y2="27.4822" gradientUnits="userSpaceOnUse">
<stop stop-color="#134FAB"/>
<stop offset="1" stop-color="#12B7F2"/>
</linearGradient>
<linearGradient id="paint4_linear_2001_308" x1="15" y1="2.5178" x2="15" y2="27.4823" gradientUnits="userSpaceOnUse">
<stop stop-color="#134FAB"/>
<stop offset="1" stop-color="#12B7F2"/>
</linearGradient>
</defs>
</svg>
