<svg width="30" height="30" viewBox="0 0 30 30" fill="none" xmlns="http://www.w3.org/2000/svg">
<g id="Question">
<path id="Vector" fill-rule="evenodd" clip-rule="evenodd" d="M15 27.5C21.9037 27.5 27.5 21.9037 27.5 15C27.5 8.09625 21.9037 2.5 15 2.5C8.09625 2.5 2.5 8.09625 2.5 15C2.5 21.9037 8.09625 27.5 15 27.5ZM13.6425 16.595C13.5375 17.295 14.1325 17.8725 14.84 17.8725H15.4275C15.5944 17.8725 15.7551 17.8089 15.8767 17.6947C15.9984 17.5804 16.072 17.4241 16.0825 17.2575C16.1538 16.6 16.4362 16.025 16.9275 15.5338L17.715 14.7587C18.33 14.14 18.76 13.5787 19.0063 13.075C19.2525 12.5637 19.375 12.0225 19.375 11.4513C19.375 10.195 18.9963 9.22375 18.2387 8.53875C17.4812 7.84625 16.4163 7.5 15.0437 7.5C13.6838 7.5 12.61 7.8625 11.8188 8.58875C11.3504 9.02318 11.0079 9.57594 10.8275 10.1888C10.5975 10.9438 11.2775 11.6025 12.065 11.6025C12.7325 11.6025 13.2313 11.0588 13.695 10.5525C13.76 10.4813 13.8237 10.41 13.8875 10.3425C14.18 10.0338 14.565 9.88 15.0437 9.88C16.0538 9.88 16.5588 10.4475 16.5588 11.5825C16.5588 11.9587 16.4613 12.3187 16.2675 12.6612C16.0737 12.9975 15.6813 13.4375 15.0925 13.9813C14.51 14.5188 14.1087 15.0675 13.8875 15.625C13.7787 15.9012 13.6975 16.225 13.6425 16.595ZM13.7137 19.8587C13.4225 20.1475 13.2763 20.5175 13.2763 20.9675C13.2763 21.4113 13.4188 21.7775 13.7038 22.0675C13.995 22.355 14.3775 22.5 14.85 22.5C15.3225 22.5 15.7 22.355 15.9862 22.0662C16.2775 21.7775 16.4237 21.4113 16.4237 20.9675C16.4237 20.5175 16.2737 20.1475 15.9762 19.8587C15.685 19.5625 15.3088 19.415 14.85 19.415C14.39 19.415 14.0125 19.5625 13.7137 19.8587Z" fill="url(#paint0_linear_2057_1141)"/>
</g>
<defs>
<linearGradient id="paint0_linear_2057_1141" x1="15" y1="2.5" x2="15" y2="27.5" gradientUnits="userSpaceOnUse">
<stop stop-color="#05E5FE"/>
<stop offset="1" stop-color="#0548B3"/>
</linearGradient>
</defs>
</svg>
