<svg width="30" height="30" viewBox="0 0 30 30" fill="none" xmlns="http://www.w3.org/2000/svg">
<g id="Roadmap">
<path id="Vector" d="M11.5186 3.75C11.2719 3.77199 11.0304 3.82417 10.7959 3.90383L6.54297 5.35176C4.87616 5.91832 3.75067 7.48929 3.75 9.25117V23.3838C3.74878 25.0227 5.39523 26.2052 6.9458 25.6765L11.1841 24.2335C11.416 24.1418 11.6382 24.1402 11.8677 24.148C12.0848 24.1554 12.3032 24.195 12.5073 24.2725C14.0251 24.8884 15.5676 25.5206 16.8677 26.0501C17.2952 26.2322 17.7111 26.2637 18.1397 26.2455C18.5688 26.2273 19.001 26.1305 19.3921 25.9427C20.8218 25.2151 22.2523 24.4828 23.6817 23.7525C25.2556 22.9486 26.2492 21.3263 26.25 19.5576V6.70203C26.2508 5.36289 25.1446 4.26693 23.8062 4.2823C23.5505 4.28513 23.2962 4.32686 23.0542 4.40926C21.6373 4.8917 20.2202 5.37375 18.8037 5.85719C18.5948 5.92178 18.3751 5.94915 18.1567 5.93777C18.1519 5.93852 18.147 5.93934 18.1421 5.94021C18.1388 5.93937 18.1356 5.93856 18.1323 5.93777C17.9124 5.93528 17.6933 5.89186 17.4878 5.81324C15.9776 5.19679 14.4649 4.58013 12.9565 3.96243C12.613 3.83098 12.2501 3.76149 11.8823 3.75733C11.7564 3.74722 11.6336 3.75232 11.5186 3.75ZM12.5 5.12957C14.0844 5.77257 15.6871 6.42964 17.0435 6.98282C17.1895 7.03871 17.3478 7.03751 17.5 7.07073V24.9074C17.4383 24.8911 17.372 24.9034 17.3121 24.8805C15.8604 24.2885 14.4063 23.6963 12.9566 23.1029C12.8105 23.0471 12.6522 23.0483 12.5 23.0151V5.12957Z" fill="white"/>
</g>
</svg>
