<svg width="30" height="30" viewBox="0 0 30 30" fill="none" xmlns="http://www.w3.org/2000/svg">
<g id="Star">
<path id="Vector" d="M27.5 12.625C27.625 12 27.125 11.25 26.5 11.25L19.375 10.25L16.125 3.75005C16 3.50005 15.875 3.37505 15.625 3.25005C15 2.87504 14.25 3.12505 13.875 3.75005L10.75 10.25L3.625 11.25C3.25 11.25 3 11.375 2.875 11.625C2.375 12.125 2.375 12.875 2.875 13.375L8 18.375L6.75 25.5C6.75 25.75 6.75 26 6.875 26.25C7.25 26.875 8 27.125 8.625 26.75L15 23.375L21.375 26.75C21.5 26.875 21.75 26.875 22 26.875C22.125 26.875 22.125 26.875 22.25 26.875C22.875 26.75 23.375 26.125 23.25 25.375L22 18.25L27.125 13.25C27.375 13.125 27.5 12.875 27.5 12.625Z" fill="white"/>
</g>
</svg>
