<svg width="30" height="30" viewBox="0 0 30 30" fill="none" xmlns="http://www.w3.org/2000/svg">
<g id="Star">
<path id="Vector" d="M27.5 9.62505C27.625 9.00005 27.125 8.25004 26.5 8.25004L19.375 7.25004L16.125 0.750045C16 0.500045 15.875 0.375045 15.625 0.250045C15 -0.124955 14.25 0.125045 13.875 0.750045L10.75 7.25004L3.625 8.25004C3.25 8.25004 3 8.37505 2.875 8.62505C2.375 9.12505 2.375 9.87504 2.875 10.375L8 15.375L6.75 22.5C6.75 22.75 6.75 23 6.875 23.25C7.25 23.875 8 24.125 8.625 23.75L15 20.375L21.375 23.75C21.5 23.875 21.75 23.875 22 23.875C22.125 23.875 22.125 23.875 22.25 23.875C22.875 23.75 23.375 23.125 23.25 22.375L22 15.25L27.125 10.25C27.375 10.125 27.5 9.87505 27.5 9.62505Z" fill="url(#paint0_linear_2057_999)"/>
</g>
<defs>
<linearGradient id="paint0_linear_2057_999" x1="15.0096" y1="0.0738525" x2="15.0096" y2="23.9262" gradientUnits="userSpaceOnUse">
<stop stop-color="#05E5FE"/>
<stop offset="1" stop-color="#0589D2"/>
</linearGradient>
</defs>
</svg>
