<svg width="131" height="30" viewBox="0 0 131 30" fill="none" xmlns="http://www.w3.org/2000/svg">
<g id="Group">
<path id="Vector" d="M28.6628 0.260986C27.5863 0.260986 26.568 0.754952 25.8961 1.60476L16.2129 13.8533L26.8819 2.57397C27.3143 2.11512 27.9165 1.8576 28.5442 1.8576C29.8113 1.8576 30.8412 2.89235 30.8412 4.17058V28.2486C31.6596 27.6937 32.199 26.7503 32.199 25.6804V3.82411C32.199 1.85526 30.6157 0.260986 28.6628 0.260986Z" fill="url(#paint0_linear_2244_2152)"/>
<path id="Vector_2" d="M3.92677 1.85526C4.71491 1.85526 5.46818 2.18535 6.00524 2.76828L16.2116 13.8509L5.90294 1.4643C5.26824 0.701105 4.3313 0.260986 3.34089 0.260986C1.49724 0.260986 0 1.7663 0 3.62512V25.657C0 26.6075 0.425458 27.4596 1.09271 28.0309V4.70904C1.09271 3.13349 2.36211 1.85526 3.92677 1.85526Z" fill="url(#paint1_linear_2244_2152)"/>
<path id="Vector_3" d="M28.542 1.85547C27.9143 1.85547 27.3121 2.11533 26.8797 2.57184L16.2107 13.8512L6.00433 2.76849C5.46727 2.18556 4.714 1.85547 3.92586 1.85547C2.3612 1.85547 1.0918 3.1337 1.0918 4.70924V28.0311C1.63118 28.4923 2.32865 28.7708 3.08889 28.7708C4.79538 28.7708 6.18102 27.3779 6.18102 25.6572V11.194L16.0968 23.8359L26.0497 11.2315V25.6759C26.0497 27.3849 27.426 28.7708 29.1232 28.7708C29.7579 28.7708 30.3484 28.5765 30.839 28.2441V4.16846C30.839 2.89023 29.8114 1.85547 28.542 1.85547Z" fill="white"/>
<path id="Vector_4" d="M96.1569 12.6246L90.0517 3.68163C89.5751 2.98165 88.7846 2.56494 87.943 2.56494C86.9874 2.56494 86.1133 3.0987 85.6739 3.95086C84.1883 6.82102 80.4893 13.6406 75.9651 19.5565L72.9938 25.1283C72.1127 26.7811 73.3007 28.785 75.1653 28.785H75.8256C77.2391 28.785 78.5318 27.982 79.1665 26.7108L81.0217 22.9908H94.7457L97.1357 27.2259C97.7866 28.3777 99.0002 29.0894 100.318 29.0894C102.462 29.0894 103.824 26.7787 102.799 24.8824L96.1569 12.6246ZM92.0278 18.002H83.9348L84.4858 16.9649L87.9802 10.3841L91.4745 16.9649L92.0278 18.002Z" fill="white"/>
<path id="Vector_5" d="M87.9435 2.56479C88.7875 2.56479 89.5756 2.98384 90.0522 3.68148L96.1574 12.6244L90.0452 1.33806C89.6081 0.532726 88.7712 0.0317383 87.8598 0.0317383C86.9438 0.0317383 86.0999 0.539756 85.6674 1.35211L75.9609 19.554C80.4852 13.6404 84.1865 6.81853 85.6698 3.94837C86.1138 3.09855 86.9903 2.56479 87.9435 2.56479Z" fill="url(#paint2_linear_2244_2152)"/>
<path id="Vector_6" d="M83.9365 18.0022H92.0295L91.4785 16.9651H84.4875L83.9365 18.0022Z" fill="url(#paint3_linear_2244_2152)"/>
<path id="Vector_7" d="M56.6148 8.28421H55.4779L51.7185 1.72217C51.0629 1.77367 49.5564 2.36363 47.5198 6.10701C45.1297 10.5012 38.0574 23.6394 36.1719 27.144C36.5508 28.2396 37.5715 29.087 38.8781 29.087C40.5078 29.087 42.0004 28.167 42.7421 26.7038L44.6252 22.9862H58.0981L60.5857 27.2704C61.239 28.3964 62.4364 29.087 63.7313 29.087C65.7122 29.087 66.963 26.9426 65.9958 25.2008L56.6148 8.28421ZM55.0455 17.9903H47.0896L47.6313 16.9649L51.0676 10.4731L54.5038 16.9649L55.0455 17.9903Z" fill="white"/>
<path id="Vector_8" d="M51.7162 1.72227L51.2443 0.900547C51.0513 0.563431 50.6956 0.357422 50.3096 0.357422C49.9144 0.357422 49.5517 0.572795 49.3634 0.921616L36.3648 24.8193C35.9487 25.5849 35.9185 26.4183 36.1695 27.1441C38.055 23.6418 45.1274 10.5013 47.5174 6.10711C49.554 2.36373 51.0606 1.77377 51.7162 1.72227Z" fill="url(#paint4_linear_2244_2152)"/>
<path id="Vector_9" d="M47.0898 17.9905H55.0457L54.5017 16.9651H47.6315L47.0898 17.9905Z" fill="url(#paint5_linear_2244_2152)"/>
<path id="Vector_10" d="M71.6691 1.05688H53.1768L53.7487 2.04482H73.9149C73.3546 1.43848 72.5572 1.05688 71.6691 1.05688Z" fill="url(#paint6_linear_2244_2152)"/>
<path id="Vector_11" d="M74.7439 4.15189C74.7439 3.3372 74.4277 2.59742 73.9162 2.04492H53.75L56.7654 7.2468H60.9061V12.4487L64.2725 18.3412C64.4167 18.594 64.684 18.7485 64.9747 18.7485C66.1534 18.7485 67.1089 17.7863 67.1089 16.5994V7.24446H71.6704C73.3676 7.2468 74.7439 5.86088 74.7439 4.15189Z" fill="white"/>
<path id="Vector_12" d="M108.964 2.26037H122.165C126.868 2.26037 129.341 9.09398 130.099 11.6434C130.102 11.5685 130.106 11.4983 130.106 11.4234V10.8919C130.106 5.37869 125.668 0.907227 120.191 0.907227H108.692C107.817 0.907227 107.108 1.62126 107.108 2.5015V25.938C107.108 26.8885 107.529 27.7383 108.189 28.3166V3.03761C108.189 2.60919 108.536 2.26037 108.964 2.26037Z" fill="url(#paint7_linear_2244_2152)"/>
<path id="Vector_13" d="M130.639 26.4975L124.487 19.5842C124.487 19.5842 129.955 17.2525 130.097 11.6433C129.337 9.09387 126.863 2.26025 122.162 2.26025H108.961C108.534 2.26025 108.189 2.60908 108.189 3.03749V28.3141C108.738 28.7941 109.454 29.0867 110.238 29.0867C111.965 29.0867 113.367 27.675 113.367 25.9356V15.2673L124.029 27.8412C124.487 28.382 125.159 28.6934 125.866 28.6934H129.665C130.388 28.6934 130.974 28.1034 130.974 27.3754C130.974 27.0523 130.855 26.7386 130.639 26.4975ZM124.036 11.4982C124.036 13.9095 122.095 15.8643 119.7 15.8643H115.364L113.404 14.8014V7.13204H119.7C121.655 7.13204 123.306 8.43368 123.848 10.2246C123.971 10.6273 124.036 11.0557 124.036 11.4982Z" fill="white"/>
<path id="Vector_14" d="M123.848 10.911C123.848 13.0601 122.118 14.8019 119.984 14.8019H113.404L115.364 15.8647H119.7C122.095 15.8647 124.036 13.91 124.036 11.4986C124.036 11.0562 123.969 10.6278 123.848 10.2251V10.911Z" fill="url(#paint8_linear_2244_2152)"/>
</g>
<defs>
<linearGradient id="paint0_linear_2244_2152" x1="24.085" y1="-0.938114" x2="24.2889" y2="15.3608" gradientUnits="userSpaceOnUse">
<stop offset="0.0766" stop-color="#12B7F2"/>
<stop offset="0.402" stop-color="white"/>
</linearGradient>
<linearGradient id="paint1_linear_2244_2152" x1="7.85287" y1="-0.735096" x2="8.05675" y2="15.5638" gradientUnits="userSpaceOnUse">
<stop offset="0.0766" stop-color="#12B7F2"/>
<stop offset="0.402" stop-color="white"/>
</linearGradient>
<linearGradient id="paint2_linear_2244_2152" x1="92.054" y1="-2.15956" x2="83.8082" y2="22.6091" gradientUnits="userSpaceOnUse">
<stop offset="0.128" stop-color="#12B7F2"/>
<stop offset="0.4944" stop-color="white"/>
</linearGradient>
<linearGradient id="paint3_linear_2244_2152" x1="87.9824" y1="15.9781" x2="87.9824" y2="20.6856" gradientUnits="userSpaceOnUse">
<stop offset="0.128" stop-color="#12B7F2"/>
<stop offset="0.4944" stop-color="white"/>
</linearGradient>
<linearGradient id="paint4_linear_2244_2152" x1="50.7322" y1="0.506759" x2="37.7743" y2="24.8811" gradientUnits="userSpaceOnUse">
<stop offset="0.0766" stop-color="#12B7F2"/>
<stop offset="0.402" stop-color="white"/>
</linearGradient>
<linearGradient id="paint5_linear_2244_2152" x1="51.0674" y1="15.9781" x2="51.0674" y2="20.6856" gradientUnits="userSpaceOnUse">
<stop offset="0.128" stop-color="#12B7F2"/>
<stop offset="0.4944" stop-color="white"/>
</linearGradient>
<linearGradient id="paint6_linear_2244_2152" x1="53.1767" y1="1.55144" x2="73.9148" y2="1.55144" gradientUnits="userSpaceOnUse">
<stop offset="0.3518" stop-color="#12B7F2"/>
<stop offset="0.8772" stop-color="white"/>
</linearGradient>
<linearGradient id="paint7_linear_2244_2152" x1="108.231" y1="0.0488703" x2="120.418" y2="20.2215" gradientUnits="userSpaceOnUse">
<stop offset="0.128" stop-color="#12B7F2"/>
<stop offset="0.4944" stop-color="white"/>
</linearGradient>
<linearGradient id="paint8_linear_2244_2152" x1="118.753" y1="14.7094" x2="118.792" y2="16.5506" gradientUnits="userSpaceOnUse">
<stop offset="0.128" stop-color="#12B7F2"/>
<stop offset="0.4944" stop-color="white"/>
</linearGradient>
</defs>
</svg>
