<svg width="30" height="31" viewBox="0 0 30 31" fill="none" xmlns="http://www.w3.org/2000/svg">
<path id="Vector" d="M15 30.0894C17.9667 30.0894 20.8668 29.2079 23.3335 27.5564C25.8003 25.9049 27.7229 23.5575 28.8582 20.8112C29.9935 18.0649 30.2906 15.0429 29.7118 12.1274C29.133 9.21187 27.7044 6.53381 25.6066 4.43185C23.5088 2.3299 20.8361 0.898443 17.9263 0.318516C15.0166 -0.261414 12.0006 0.0362263 9.25974 1.1738C6.51885 2.31137 4.17618 4.23778 2.52795 6.70942C0.879734 9.18106 -1.90735e-06 12.0869 -1.90735e-06 15.0595C-1.90735e-06 19.0457 1.58035 22.8686 4.3934 25.6872C7.20644 28.5059 11.0217 30.0894 15 30.0894ZM10.9187 9.72395C10.5498 9.44298 10.3066 9.02729 10.2423 8.56746C10.1779 8.10763 10.2975 7.64094 10.575 7.26908C10.7416 7.05653 10.9541 6.88464 11.1966 6.7664C11.4391 6.64815 11.7053 6.58663 11.975 6.58648C12.3517 6.58014 12.7202 6.69662 13.025 6.91839L21.875 13.6693C22.0887 13.8323 22.262 14.0426 22.3812 14.2837C22.5005 14.5249 22.5626 14.7904 22.5626 15.0595C22.5626 15.3287 22.5005 15.5942 22.3812 15.8353C22.262 16.0765 22.0887 16.2868 21.875 16.4498L13.025 23.2007C12.6562 23.4806 12.1915 23.6021 11.7332 23.5387C11.2749 23.4753 10.8606 23.2321 10.5812 22.8625C10.3019 22.493 10.1806 22.0274 10.2439 21.5682C10.3072 21.109 10.5499 20.6938 10.9187 20.4139L17.9375 15.0595L10.9187 9.72395Z" fill="white"/>
</svg>
